<svg xmlns="http://www.w3.org/2000/svg" xmlns:xlink="http://www.w3.org/1999/xlink" width="500" zoomAndPan="magnify" viewBox="0 0 375 374.999991" height="500" preserveAspectRatio="xMidYMid meet" version="1.0"><defs><clipPath id="eacadff62f"><path d="M 0 68.523438 L 375 68.523438 L 375 306.273438 L 0 306.273438 Z M 0 68.523438 " clip-rule="nonzero"/></clipPath></defs><g clip-path="url(#eacadff62f)"><path fill="#ffffff" d="M 308.507812 306.109375 L 65.894531 306.109375 C 29.351562 306.109375 0 276.753906 0 240.214844 C 0 204.871094 28.15625 175.515625 63.5 174.320312 C 62.898438 169.527344 62.300781 164.734375 62.300781 159.34375 C 62.300781 109.023438 103.035156 68.886719 152.753906 68.886719 C 182.707031 68.886719 210.261719 83.863281 227.636719 107.824219 C 237.820312 102.433594 249.203125 99.4375 261.183594 99.4375 C 300.121094 99.4375 332.46875 131.1875 332.46875 170.722656 C 332.46875 173.121094 332.46875 176.117188 331.867188 178.511719 C 357.027344 188.097656 375 212.65625 375 240.214844 C 374.402344 276.753906 344.449219 306.109375 308.507812 306.109375 Z M 65.894531 194.085938 C 40.136719 194.085938 19.769531 215.054688 19.769531 240.214844 C 19.769531 265.371094 40.734375 286.339844 65.894531 286.339844 L 308.507812 286.339844 C 334.265625 286.339844 354.632812 265.371094 354.632812 240.214844 C 354.632812 218.648438 339.058594 199.476562 318.089844 194.6875 L 307.90625 192.289062 L 310.304688 182.105469 C 311.5 177.914062 312.101562 173.71875 312.101562 169.527344 C 312.101562 141.371094 289.335938 118.007812 260.582031 118.007812 C 249.203125 118.007812 239.019531 121.601562 230.03125 128.191406 L 221.046875 135.378906 L 215.65625 126.394531 C 203.074219 103.03125 179.113281 88.65625 152.753906 88.65625 C 113.816406 88.65625 82.070312 120.40625 82.070312 159.34375 C 82.070312 166.53125 83.265625 173.71875 85.664062 180.90625 L 89.855469 194.085938 Z M 65.894531 194.085938 " fill-opacity="1" fill-rule="nonzero"/></g></svg>