<svg xmlns="http://www.w3.org/2000/svg" xmlns:xlink="http://www.w3.org/1999/xlink" width="500" zoomAndPan="magnify" viewBox="0 0 375 374.999991" height="500" preserveAspectRatio="xMidYMid meet" version="1.0"><defs><clipPath id="781d4a3be6"><path d="M 0 15.46875 L 375 15.46875 L 375 359.71875 L 0 359.71875 Z M 0 15.46875 " clip-rule="nonzero"/></clipPath></defs><g clip-path="url(#781d4a3be6)"><path fill="#ffffff" d="M 287.554688 75.636719 C 281.5 75.636719 275.523438 76.273438 269.707031 77.5 C 254.269531 40.5 214.863281 15.480469 170.117188 15.480469 C 115.527344 15.480469 70.402344 52.730469 64.378906 100.515625 C 28.0625 105.871094 0.0976562 137.242188 0.0976562 175.023438 C 0.0976562 216.550781 33.878906 250.335938 75.40625 250.335938 L 287.554688 250.335938 C 335.71875 250.335938 374.902344 211.152344 374.902344 162.988281 C 374.902344 114.824219 335.71875 75.636719 287.554688 75.636719 Z M 287.554688 226.910156 L 75.40625 226.910156 C 46.796875 226.910156 23.519531 203.636719 23.519531 175.023438 C 23.519531 146.414062 46.796875 123.136719 75.40625 123.136719 C 81.875 123.136719 87.121094 117.894531 87.121094 111.425781 C 87.121094 71.4375 124.351562 38.90625 170.117188 38.90625 C 204.90625 38.90625 235.433594 57.609375 247.597656 85.371094 C 233.078125 92.855469 220.664062 104.355469 212.167969 118.84375 C 208.894531 124.421875 210.761719 131.601562 216.34375 134.875 C 221.921875 138.144531 229.097656 136.277344 232.371094 130.695312 C 243.816406 111.183594 264.964844 99.0625 287.554688 99.0625 C 322.804688 99.0625 351.480469 127.738281 351.480469 162.988281 C 351.480469 198.234375 322.804688 226.910156 287.554688 226.910156 Z M 315.167969 293.214844 C 315.167969 299.683594 309.925781 304.929688 303.457031 304.929688 L 71.542969 304.929688 C 65.074219 304.929688 59.832031 299.683594 59.832031 293.214844 C 59.832031 286.746094 65.074219 281.503906 71.542969 281.503906 L 303.457031 281.503906 C 309.925781 281.503906 315.167969 286.746094 315.167969 293.214844 Z M 315.167969 347.804688 C 315.167969 354.273438 309.925781 359.519531 303.457031 359.519531 L 71.542969 359.519531 C 65.074219 359.519531 59.832031 354.273438 59.832031 347.804688 C 59.832031 341.335938 65.074219 336.09375 71.542969 336.09375 L 303.457031 336.09375 C 309.925781 336.09375 315.167969 341.335938 315.167969 347.804688 Z M 315.167969 347.804688 " fill-opacity="1" fill-rule="nonzero"/></g></svg>