<svg xmlns="http://www.w3.org/2000/svg" xmlns:xlink="http://www.w3.org/1999/xlink" width="500" zoomAndPan="magnify" viewBox="0 0 375 374.999991" height="500" preserveAspectRatio="xMidYMid meet" version="1.0"><defs><clipPath id="0ad9e1273f"><path d="M 0 15 L 375 15 L 375 252 L 0 252 Z M 0 15 " clip-rule="nonzero"/></clipPath><clipPath id="ec0f5c0e99"><path d="M 52 272 L 102 272 L 102 360 L 52 360 Z M 52 272 " clip-rule="nonzero"/></clipPath><clipPath id="848cc1bcea"><path d="M 115 272 L 166 272 L 166 360 L 115 360 Z M 115 272 " clip-rule="nonzero"/></clipPath><clipPath id="4a95636e9a"><path d="M 179 272 L 230 272 L 230 360 L 179 360 Z M 179 272 " clip-rule="nonzero"/></clipPath><clipPath id="cf111856f4"><path d="M 243 272 L 294 272 L 294 360 L 243 360 Z M 243 272 " clip-rule="nonzero"/></clipPath></defs><g clip-path="url(#0ad9e1273f)"><path fill="#ffffff" d="M 311.574219 83.679688 C 297.179688 42.886719 258.296875 14.996094 214.570312 14.996094 C 177.5625 14.996094 143.277344 35.234375 125.101562 67.179688 C 93.636719 68.019531 67.425781 90.253906 60.804688 120.191406 C 26.890625 122.78125 0.0859375 151.207031 0.0859375 185.777344 C 0.0859375 222.054688 29.589844 251.5625 65.863281 251.5625 L 289.5 251.5625 C 336.601562 251.5625 374.914062 213.242188 374.914062 166.140625 C 374.914062 127.09375 348.695312 93.53125 311.574219 83.679688 Z M 289.5 227.445312 L 65.863281 227.445312 C 42.894531 227.445312 24.203125 208.753906 24.203125 185.777344 C 24.203125 162.804688 42.894531 144.117188 65.863281 144.117188 C 67.300781 144.117188 68.71875 144.191406 70.113281 144.335938 C 73.398438 144.652344 76.6875 143.625 79.195312 141.464844 C 81.695312 139.300781 83.203125 136.207031 83.363281 132.898438 C 84.457031 109.558594 103.605469 91.273438 126.949219 91.273438 C 128.375 91.273438 129.769531 91.359375 131.160156 91.492188 C 136.210938 91.960938 141.054688 89.21875 143.222656 84.605469 C 156.164062 56.96875 184.171875 39.113281 214.570312 39.113281 C 249.949219 39.113281 281.183594 62.96875 290.53125 97.132812 C 291.761719 101.636719 295.488281 105.027344 300.085938 105.828125 C 329.46875 110.949219 350.796875 136.316406 350.796875 166.140625 C 350.796875 199.941406 323.300781 227.445312 289.5 227.445312 Z M 289.5 227.445312 " fill-opacity="1" fill-rule="nonzero"/></g><g clip-path="url(#ec0f5c0e99)"><path fill="#ffffff" d="M 94.304688 273.453125 C 88.144531 270.96875 81.109375 273.957031 78.609375 280.132812 L 53.105469 343.433594 C 50.617188 349.609375 53.605469 356.640625 59.789062 359.125 C 61.257812 359.722656 62.785156 360.003906 64.285156 360.003906 C 69.058594 360.003906 73.582031 357.148438 75.476562 352.449219 L 100.988281 289.148438 C 103.472656 282.96875 100.484375 275.945312 94.304688 273.453125 Z M 94.304688 273.453125 " fill-opacity="1" fill-rule="nonzero"/></g><g clip-path="url(#848cc1bcea)"><path fill="#ffffff" d="M 158.027344 273.453125 C 151.878906 270.96875 144.832031 273.957031 142.335938 280.132812 L 116.824219 343.433594 C 114.339844 349.609375 117.328125 356.640625 123.507812 359.125 C 124.980469 359.722656 126.507812 360.003906 128.007812 360.003906 C 132.785156 360.003906 137.304688 357.148438 139.203125 352.449219 L 164.710938 289.148438 C 167.195312 282.96875 164.210938 275.945312 158.027344 273.453125 Z M 158.027344 273.453125 " fill-opacity="1" fill-rule="nonzero"/></g><g clip-path="url(#4a95636e9a)"><path fill="#ffffff" d="M 221.75 273.453125 C 215.589844 270.96875 208.554688 273.957031 206.058594 280.132812 L 180.550781 343.433594 C 178.0625 349.609375 181.050781 356.640625 187.234375 359.125 C 188.703125 359.722656 190.230469 360.003906 191.730469 360.003906 C 196.507812 360.003906 201.027344 357.148438 202.925781 352.449219 L 228.433594 289.148438 C 230.917969 282.96875 227.929688 275.945312 221.75 273.453125 Z M 221.75 273.453125 " fill-opacity="1" fill-rule="nonzero"/></g><g clip-path="url(#cf111856f4)"><path fill="#ffffff" d="M 285.476562 273.453125 C 279.296875 270.96875 272.269531 273.957031 269.78125 280.132812 L 244.265625 343.433594 C 241.78125 349.609375 244.765625 356.636719 250.941406 359.125 C 252.421875 359.722656 253.945312 360.003906 255.449219 360.003906 C 260.222656 360.003906 264.746094 357.148438 266.640625 352.449219 L 292.15625 289.148438 C 294.640625 282.96875 291.65625 275.945312 285.476562 273.453125 Z M 285.476562 273.453125 " fill-opacity="1" fill-rule="nonzero"/></g></svg>