<svg xmlns="http://www.w3.org/2000/svg" xmlns:xlink="http://www.w3.org/1999/xlink" width="500" zoomAndPan="magnify" viewBox="0 0 375 374.999991" height="500" preserveAspectRatio="xMidYMid meet" version="1.0"><path fill="#ffffff" d="M 360.9375 146.601562 L 345.351562 146.601562 C 343.59375 146.601562 341.953125 145.3125 341.367188 143.4375 C 337.96875 131.601562 333.28125 120.234375 327.421875 109.6875 C 326.484375 108.046875 326.835938 105.9375 328.007812 104.765625 L 339.140625 93.632812 C 344.53125 88.125 344.53125 79.335938 339.140625 73.945312 L 301.054688 35.859375 C 297.421875 32.34375 293.671875 31.523438 291.09375 31.523438 C 288.515625 31.523438 284.765625 32.34375 281.132812 35.859375 L 270.117188 46.992188 C 268.945312 48.164062 266.835938 48.398438 265.195312 47.460938 C 254.765625 41.601562 243.398438 36.914062 231.328125 33.398438 C 229.570312 32.929688 228.398438 31.40625 228.398438 29.53125 L 228.398438 13.945312 C 228.398438 6.210938 222.070312 0 214.335938 0 L 160.429688 0 C 152.8125 0 146.601562 6.210938 146.601562 13.945312 L 146.601562 29.53125 C 146.601562 31.289062 145.195312 32.929688 143.4375 33.398438 C 131.601562 36.796875 120.234375 41.484375 109.570312 47.460938 C 107.929688 48.398438 105.820312 48.164062 104.648438 46.992188 L 94.335938 36.679688 C 89.179688 30.585938 77.578125 31.40625 73.945312 35.859375 L 36.5625 73.359375 C 33.398438 75.9375 31.640625 79.6875 31.640625 83.789062 C 31.640625 87.773438 33.398438 91.640625 35.859375 93.632812 L 46.757812 104.648438 C 48.046875 105.9375 48.28125 108.046875 47.34375 109.6875 C 41.484375 120.234375 36.796875 131.601562 33.28125 143.554688 C 32.8125 145.3125 31.289062 146.601562 29.53125 146.601562 L 13.828125 146.601562 C 6.210938 146.601562 0 152.929688 0 160.546875 L 0 214.453125 C 0 222.1875 6.210938 228.398438 13.828125 228.398438 L 29.53125 228.398438 C 31.171875 228.398438 32.8125 229.6875 33.398438 231.445312 C 36.796875 243.398438 41.484375 254.882812 47.34375 265.3125 C 48.28125 267.070312 48.164062 268.945312 46.875 270.234375 L 35.742188 281.367188 C 30.234375 286.875 30.234375 295.546875 35.859375 301.054688 L 73.359375 338.554688 C 75.9375 341.601562 79.804688 343.359375 83.789062 343.359375 C 87.773438 343.359375 91.523438 341.601562 93.632812 339.140625 L 104.648438 328.125 C 105.9375 326.835938 108.046875 326.601562 109.570312 327.539062 C 120.703125 333.632812 132.1875 338.4375 143.320312 341.484375 C 145.195312 342.070312 146.601562 343.710938 146.601562 345.46875 L 146.601562 361.171875 C 146.601562 368.789062 152.8125 375 160.429688 375 L 214.335938 375 C 222.070312 375 228.398438 368.789062 228.398438 361.171875 L 228.398438 345.46875 C 228.398438 343.710938 229.6875 342.070312 231.328125 341.484375 C 242.8125 338.320312 254.179688 333.632812 265.078125 327.539062 C 266.71875 326.601562 268.828125 326.835938 270.117188 328.125 L 281.835938 339.84375 C 287.226562 344.414062 294.960938 344.414062 300.9375 339.140625 L 339.726562 300.351562 C 344.296875 295.078125 344.296875 287.34375 339.140625 281.25 L 328.007812 270.234375 C 326.71875 268.945312 326.484375 266.953125 327.421875 265.3125 C 333.28125 254.765625 337.96875 243.398438 341.367188 231.5625 C 341.953125 229.804688 343.59375 228.398438 345.351562 228.398438 L 360.9375 228.398438 C 368.671875 228.398438 375 222.1875 375 214.453125 L 375 160.546875 C 375 152.929688 368.671875 146.601562 360.9375 146.601562 Z M 238.125 257.695312 C 223.59375 268.125 206.71875 273.75 189.140625 274.101562 L 187.382812 274.101562 C 152.109375 274.101562 119.648438 252.070312 106.757812 219.257812 C 93.515625 185.390625 103.007812 146.367188 130.429688 122.226562 C 157.5 98.320312 198.398438 94.21875 229.921875 112.03125 C 266.015625 132.304688 282.890625 177.1875 269.179688 216.445312 C 263.320312 232.96875 252.65625 247.148438 238.125 257.695312 Z M 238.125 257.695312 " fill-opacity="1" fill-rule="nonzero"/></svg>