<svg xmlns="http://www.w3.org/2000/svg" xmlns:xlink="http://www.w3.org/1999/xlink" width="500" zoomAndPan="magnify" viewBox="0 0 375 374.999991" height="500" preserveAspectRatio="xMidYMid meet" version="1.0"><defs><clipPath id="b34cea63b9"><path d="M 0 0 L 366.75 0 L 366.75 214 L 0 214 Z M 0 0 " clip-rule="nonzero"/></clipPath><clipPath id="f2432de864"><path d="M 175 275 L 192 275 L 192 366.75 L 175 366.75 Z M 175 275 " clip-rule="nonzero"/></clipPath></defs><g clip-path="url(#b34cea63b9)"><path fill="#ffffff" d="M 63.886719 108.011719 C 37.078125 108.011719 15.285156 128.371094 15.285156 153.390625 C 15.285156 178.347656 37.078125 198.707031 63.886719 198.707031 L 324.035156 198.707031 C 339.199219 198.707031 351.558594 187.304688 351.558594 173.210938 C 351.558594 159.179688 339.199219 147.777344 324.035156 147.777344 C 320.390625 147.777344 316.867188 148.375 313.703125 149.628906 C 310.71875 150.820312 307.253906 149.925781 305.164062 147.476562 C 303.074219 145.03125 302.71875 141.507812 304.328125 138.699219 C 307.671875 132.910156 309.34375 126.640625 309.34375 120.25 C 309.34375 98.875 290.714844 81.5 267.847656 81.5 C 256.207031 81.5 245.398438 85.917969 237.457031 93.859375 C 235.128906 96.25 231.488281 96.785156 228.5 95.234375 C 225.574219 93.679688 223.964844 90.398438 224.558594 87.113281 C 224.917969 85.023438 224.976562 82.695312 224.976562 80.484375 C 224.976562 44.542969 193.75 15.285156 155.300781 15.285156 C 116.847656 15.285156 85.621094 44.542969 85.621094 80.484375 C 85.621094 87.171875 86.753906 93.921875 89.082031 100.546875 C 89.382812 101.324219 89.5 102.21875 89.5 103.113281 C 89.5 103.113281 89.5 103.113281 89.5 103.175781 C 89.5 108.546875 83.113281 112.308594 78.515625 110.101562 C 73.976562 108.726562 69.082031 108.011719 63.886719 108.011719 Z M 324.035156 213.992188 L 63.886719 213.992188 C 28.660156 213.992188 0 186.765625 0 153.390625 C 0 119.953125 28.660156 92.726562 63.886719 92.726562 C 66.394531 92.726562 68.960938 92.84375 71.410156 93.144531 C 70.695312 88.964844 70.335938 84.726562 70.335938 80.484375 C 70.335938 36.125 108.429688 0 155.300781 0 C 199.542969 0 236.023438 32.183594 239.964844 73.140625 C 248.324219 68.664062 257.878906 66.214844 267.847656 66.214844 C 299.136719 66.214844 324.628906 90.457031 324.628906 120.25 C 324.628906 124.429688 324.152344 128.492188 323.136719 132.492188 C 346.902344 131.773438 366.84375 150.464844 366.84375 173.210938 C 366.84375 195.722656 347.617188 213.992188 324.035156 213.992188 " fill-opacity="1" fill-rule="nonzero"/></g><g clip-path="url(#f2432de864)"><path fill="#ffffff" d="M 183.421875 366.84375 C 179.183594 366.84375 175.777344 363.441406 175.777344 359.199219 L 175.777344 282.773438 C 175.777344 278.535156 179.183594 275.132812 183.421875 275.132812 C 187.660156 275.132812 191.0625 278.535156 191.0625 282.773438 L 191.0625 359.199219 C 191.0625 363.441406 187.660156 366.84375 183.421875 366.84375 " fill-opacity="1" fill-rule="nonzero"/></g><path fill="#ffffff" d="M 216.5 347.738281 C 215.246094 347.738281 213.933594 347.378906 212.679688 346.722656 L 146.523438 308.507812 C 142.878906 306.359375 141.625 301.703125 143.714844 298.058594 C 145.804688 294.417969 150.523438 293.164062 154.164062 295.253906 L 220.320312 333.46875 C 224.023438 335.617188 225.277344 340.273438 223.128906 343.914062 C 221.753906 346.363281 219.1875 347.738281 216.5 347.738281 " fill-opacity="1" fill-rule="nonzero"/><path fill="#ffffff" d="M 150.34375 347.738281 C 147.714844 347.738281 145.148438 346.363281 143.714844 343.914062 C 141.625 340.214844 142.878906 335.558594 146.523438 333.40625 L 212.679688 295.195312 C 216.378906 293.105469 221.039062 294.359375 223.128906 298.058594 C 225.277344 301.703125 224.023438 306.359375 220.320312 308.449219 L 154.164062 346.664062 C 152.972656 347.378906 151.65625 347.738281 150.34375 347.738281 " fill-opacity="1" fill-rule="nonzero"/><path fill="#ffffff" d="M 305.703125 320.988281 C 301.464844 320.988281 298.058594 317.585938 298.058594 313.34375 L 298.058594 236.917969 C 298.058594 232.679688 301.464844 229.277344 305.703125 229.277344 C 309.941406 229.277344 313.34375 232.679688 313.34375 236.917969 L 313.34375 313.34375 C 313.34375 317.585938 309.941406 320.988281 305.703125 320.988281 " fill-opacity="1" fill-rule="nonzero"/><path fill="#ffffff" d="M 338.78125 301.882812 C 337.527344 301.882812 336.214844 301.523438 334.960938 300.867188 L 268.804688 262.652344 C 265.160156 260.503906 263.90625 255.847656 265.996094 252.203125 C 268.085938 248.5625 272.804688 247.308594 276.445312 249.398438 L 342.601562 287.613281 C 346.304688 289.761719 347.558594 294.417969 345.410156 298.058594 C 344.035156 300.507812 341.46875 301.882812 338.78125 301.882812 " fill-opacity="1" fill-rule="nonzero"/><path fill="#ffffff" d="M 272.625 301.882812 C 269.996094 301.882812 267.429688 300.507812 265.996094 298.058594 C 263.90625 294.359375 265.160156 289.703125 268.804688 287.550781 L 334.960938 249.339844 C 338.660156 247.25 343.320312 248.503906 345.410156 252.203125 C 347.558594 255.847656 346.304688 260.503906 342.601562 262.59375 L 276.445312 300.808594 C 275.253906 301.523438 273.9375 301.882812 272.625 301.882812 " fill-opacity="1" fill-rule="nonzero"/><path fill="#ffffff" d="M 61.140625 320.988281 C 56.902344 320.988281 53.5 317.585938 53.5 313.34375 L 53.5 236.917969 C 53.5 232.679688 56.902344 229.277344 61.140625 229.277344 C 65.378906 229.277344 68.785156 232.679688 68.785156 236.917969 L 68.785156 313.34375 C 68.785156 317.585938 65.378906 320.988281 61.140625 320.988281 " fill-opacity="1" fill-rule="nonzero"/><path fill="#ffffff" d="M 94.277344 301.882812 C 92.964844 301.882812 91.652344 301.523438 90.457031 300.867188 L 24.242188 262.652344 C 20.597656 260.503906 19.34375 255.847656 21.433594 252.203125 C 23.585938 248.5625 28.242188 247.308594 31.882812 249.398438 L 98.101562 287.613281 C 101.742188 289.761719 102.996094 294.417969 100.847656 298.058594 C 99.472656 300.507812 96.847656 301.882812 94.277344 301.882812 " fill-opacity="1" fill-rule="nonzero"/><path fill="#ffffff" d="M 28.0625 301.882812 C 25.433594 301.882812 22.867188 300.507812 21.433594 298.058594 C 19.34375 294.359375 20.597656 289.703125 24.242188 287.550781 L 90.457031 249.339844 C 94.039062 247.25 98.757812 248.503906 100.847656 252.203125 C 102.996094 255.847656 101.742188 260.503906 98.101562 262.59375 L 31.882812 300.808594 C 30.691406 301.523438 29.375 301.882812 28.0625 301.882812 " fill-opacity="1" fill-rule="nonzero"/></svg>