<svg xmlns="http://www.w3.org/2000/svg" xmlns:xlink="http://www.w3.org/1999/xlink" width="500" zoomAndPan="magnify" viewBox="0 0 375 374.999991" height="500" preserveAspectRatio="xMidYMid meet" version="1.0"><defs><clipPath id="7b63b958db"><path d="M 4.453125 8 L 370.453125 8 L 370.453125 236 L 4.453125 236 Z M 4.453125 8 " clip-rule="nonzero"/></clipPath></defs><g clip-path="url(#7b63b958db)"><path fill="#ffffff" d="M 309.53125 235.003906 L 65.46875 235.003906 C 63.472656 235.003906 61.476562 234.902344 59.492188 234.703125 C 57.503906 234.507812 55.527344 234.210938 53.570312 233.820312 C 51.609375 233.429688 49.675781 232.945312 47.765625 232.363281 C 45.851562 231.78125 43.976562 231.109375 42.128906 230.34375 C 40.285156 229.578125 38.480469 228.722656 36.71875 227.78125 C 34.957031 226.835938 33.246094 225.8125 31.585938 224.699219 C 29.925781 223.589844 28.324219 222.402344 26.777344 221.132812 C 25.234375 219.867188 23.757812 218.527344 22.34375 217.113281 C 20.933594 215.703125 19.589844 214.222656 18.324219 212.679688 C 17.054688 211.132812 15.867188 209.53125 14.757812 207.871094 C 13.648438 206.210938 12.621094 204.5 11.679688 202.738281 C 10.734375 200.976562 9.882812 199.171875 9.117188 197.328125 C 8.351562 195.484375 7.675781 193.605469 7.097656 191.695312 C 6.515625 189.78125 6.027344 187.847656 5.636719 185.886719 C 5.246094 183.929688 4.949219 181.957031 4.753906 179.96875 C 4.554688 177.980469 4.457031 175.988281 4.453125 173.988281 C 4.4375 169.976562 4.816406 166.003906 5.589844 162.066406 C 6.367188 158.132812 7.523438 154.3125 9.0625 150.605469 C 10.601562 146.902344 12.492188 143.386719 14.730469 140.058594 C 16.972656 136.730469 19.519531 133.65625 22.371094 130.835938 C 26.027344 127.191406 30.082031 124.058594 34.535156 121.441406 C 38.984375 118.824219 43.691406 116.800781 48.65625 115.378906 C 48.242188 111.683594 48.035156 107.976562 48.035156 104.257812 C 48.035156 101.832031 48.125 99.410156 48.308594 96.992188 C 48.492188 94.574219 48.765625 92.164062 49.132812 89.765625 C 49.496094 87.367188 49.953125 84.988281 50.5 82.625 C 51.046875 80.261719 51.683594 77.921875 52.40625 75.609375 C 53.128906 73.292969 53.941406 71.007812 54.839844 68.753906 C 55.738281 66.503906 56.71875 64.285156 57.785156 62.109375 C 58.851562 59.929688 59.996094 57.792969 61.222656 55.703125 C 62.453125 53.609375 63.757812 51.566406 65.140625 49.574219 C 66.523438 47.582031 67.980469 45.644531 69.511719 43.761719 C 71.039062 41.882812 72.640625 40.058594 74.308594 38.300781 C 75.976562 36.539062 77.707031 34.84375 79.503906 33.214844 C 81.300781 31.585938 83.160156 30.027344 85.074219 28.539062 C 86.988281 27.050781 88.957031 25.636719 90.980469 24.296875 C 93.003906 22.960938 95.074219 21.699219 97.191406 20.515625 C 99.308594 19.335938 101.46875 18.234375 103.671875 17.21875 C 105.875 16.199219 108.109375 15.269531 110.382812 14.421875 C 112.65625 13.574219 114.957031 12.8125 117.289062 12.140625 C 119.617188 11.464844 121.96875 10.882812 124.34375 10.386719 C 126.71875 9.894531 129.109375 9.488281 131.515625 9.175781 C 133.917969 8.863281 136.332031 8.644531 138.753906 8.511719 C 141.175781 8.382812 143.601562 8.34375 146.027344 8.398438 C 148.449219 8.453125 150.871094 8.601562 153.285156 8.839844 C 155.699219 9.074219 158.097656 9.40625 160.488281 9.824219 C 162.875 10.246094 165.246094 10.753906 167.597656 11.355469 C 169.945312 11.957031 172.269531 12.644531 174.566406 13.421875 C 176.867188 14.195312 179.132812 15.058594 181.363281 16.007812 C 183.59375 16.957031 185.789062 17.988281 187.941406 19.101562 C 190.097656 20.21875 192.207031 21.414062 194.269531 22.6875 C 196.332031 23.964844 198.34375 25.316406 200.304688 26.742188 C 202.265625 28.171875 204.167969 29.671875 206.015625 31.242188 C 207.863281 32.816406 209.648438 34.457031 211.371094 36.164062 C 213.09375 37.871094 214.746094 39.640625 216.335938 41.476562 C 221.390625 39.179688 226.628906 37.449219 232.054688 36.277344 C 237.476562 35.105469 242.964844 34.519531 248.515625 34.523438 C 249.800781 34.527344 251.082031 34.558594 252.363281 34.625 C 253.644531 34.6875 254.925781 34.785156 256.203125 34.910156 C 257.480469 35.039062 258.753906 35.195312 260.023438 35.386719 C 261.292969 35.574219 262.554688 35.796875 263.8125 36.046875 C 265.074219 36.300781 266.324219 36.582031 267.570312 36.894531 C 268.8125 37.207031 270.050781 37.550781 271.277344 37.921875 C 272.503906 38.296875 273.722656 38.699219 274.933594 39.132812 C 276.140625 39.566406 277.335938 40.027344 278.523438 40.519531 C 279.707031 41.011719 280.878906 41.535156 282.039062 42.082031 C 283.199219 42.632812 284.347656 43.210938 285.476562 43.816406 C 286.609375 44.421875 287.726562 45.054688 288.828125 45.714844 C 289.925781 46.375 291.011719 47.0625 292.078125 47.773438 C 293.144531 48.488281 294.195312 49.226562 295.222656 49.992188 C 296.253906 50.757812 297.265625 51.546875 298.257812 52.359375 C 299.25 53.175781 300.222656 54.011719 301.171875 54.875 C 302.125 55.738281 303.054688 56.621094 303.960938 57.527344 C 304.867188 58.4375 305.753906 59.367188 306.613281 60.316406 C 307.476562 61.265625 308.316406 62.238281 309.128906 63.230469 C 309.945312 64.222656 310.734375 65.234375 311.5 66.265625 C 312.261719 67.296875 313 68.34375 313.714844 69.410156 C 314.429688 70.476562 315.117188 71.5625 315.777344 72.664062 C 316.4375 73.761719 317.070312 74.878906 317.675781 76.011719 C 318.28125 77.144531 318.855469 78.289062 319.40625 79.449219 C 319.957031 80.609375 320.476562 81.78125 320.96875 82.96875 C 321.460938 84.152344 321.921875 85.347656 322.355469 86.558594 C 322.789062 87.765625 323.191406 88.984375 323.566406 90.210938 C 323.9375 91.4375 324.28125 92.675781 324.59375 93.921875 C 324.90625 95.164062 325.191406 96.417969 325.441406 97.675781 C 325.691406 98.933594 325.914062 100.199219 326.101562 101.46875 C 326.292969 102.738281 326.449219 104.011719 326.578125 105.289062 C 326.707031 106.5625 326.800781 107.84375 326.867188 109.125 C 326.929688 110.40625 326.960938 111.691406 326.964844 112.972656 C 326.964844 113.855469 326.953125 114.71875 326.929688 115.5625 C 328.488281 116.03125 330.023438 116.566406 331.539062 117.15625 C 333.054688 117.75 334.542969 118.402344 336.007812 119.117188 C 337.472656 119.828125 338.902344 120.597656 340.304688 121.421875 C 341.707031 122.246094 343.074219 123.128906 344.40625 124.0625 C 345.738281 124.996094 347.03125 125.980469 348.285156 127.019531 C 349.539062 128.054688 350.75 129.140625 351.917969 130.273438 C 353.085938 131.410156 354.207031 132.585938 355.28125 133.808594 C 356.355469 135.03125 357.378906 136.296875 358.351562 137.597656 C 359.324219 138.902344 360.246094 140.242188 361.113281 141.621094 C 361.980469 142.996094 362.789062 144.40625 363.542969 145.847656 C 364.300781 147.289062 364.996094 148.761719 365.632812 150.257812 C 366.273438 151.753906 366.847656 153.273438 367.367188 154.816406 C 367.882812 156.359375 368.339844 157.921875 368.730469 159.5 C 369.125 161.078125 369.453125 162.671875 369.71875 164.277344 C 369.988281 165.882812 370.1875 167.496094 370.328125 169.117188 C 370.464844 170.738281 370.539062 172.363281 370.546875 173.988281 C 370.542969 175.988281 370.445312 177.980469 370.246094 179.96875 C 370.050781 181.957031 369.753906 183.929688 369.363281 185.886719 C 368.972656 187.847656 368.484375 189.78125 367.90625 191.695312 C 367.324219 193.605469 366.648438 195.484375 365.882812 197.328125 C 365.117188 199.175781 364.265625 200.976562 363.324219 202.738281 C 362.378906 204.5 361.355469 206.210938 360.242188 207.871094 C 359.132812 209.53125 357.945312 211.136719 356.675781 212.679688 C 355.410156 214.222656 354.070312 215.703125 352.65625 217.113281 C 351.242188 218.527344 349.765625 219.867188 348.222656 221.132812 C 346.675781 222.402344 345.074219 223.589844 343.414062 224.703125 C 341.753906 225.8125 340.042969 226.839844 338.28125 227.78125 C 336.519531 228.722656 334.714844 229.578125 332.871094 230.34375 C 331.023438 231.109375 329.148438 231.78125 327.234375 232.363281 C 325.324219 232.945312 323.390625 233.429688 321.429688 233.820312 C 319.472656 234.214844 317.496094 234.507812 315.507812 234.707031 C 313.523438 234.902344 311.527344 235.003906 309.53125 235.003906 Z M 143.917969 25.808594 C 142.464844 25.8125 141.011719 25.855469 139.5625 25.9375 C 138.113281 26.023438 136.667969 26.148438 135.222656 26.3125 C 133.78125 26.472656 132.34375 26.679688 130.910156 26.921875 C 129.476562 27.164062 128.054688 27.449219 126.636719 27.769531 C 125.222656 28.09375 123.816406 28.453125 122.417969 28.855469 C 121.023438 29.257812 119.636719 29.695312 118.265625 30.171875 C 116.894531 30.648438 115.535156 31.164062 114.195312 31.714844 C 112.851562 32.269531 111.523438 32.859375 110.210938 33.484375 C 108.902344 34.109375 107.609375 34.773438 106.335938 35.46875 C 105.0625 36.167969 103.808594 36.898438 102.574219 37.667969 C 101.339844 38.433594 100.128906 39.234375 98.941406 40.066406 C 97.75 40.902344 96.585938 41.769531 95.445312 42.667969 C 94.304688 43.566406 93.1875 44.496094 92.097656 45.457031 C 91.007812 46.417969 89.945312 47.40625 88.910156 48.425781 C 87.878906 49.445312 86.871094 50.492188 85.894531 51.570312 C 84.917969 52.644531 83.972656 53.746094 83.054688 54.875 C 82.140625 56 81.257812 57.152344 80.40625 58.328125 C 79.554688 59.507812 78.734375 60.707031 77.949219 61.925781 C 77.164062 63.148438 76.414062 64.390625 75.695312 65.65625 C 74.980469 66.917969 74.300781 68.203125 73.65625 69.503906 C 73.007812 70.804688 72.402344 72.121094 71.828125 73.457031 C 71.257812 74.792969 70.722656 76.144531 70.222656 77.507812 C 69.726562 78.871094 69.265625 80.25 68.84375 81.640625 C 68.425781 83.03125 68.042969 84.429688 67.699219 85.84375 C 67.355469 87.253906 67.050781 88.671875 66.785156 90.101562 C 66.519531 91.53125 66.296875 92.964844 66.109375 94.40625 C 65.925781 95.84375 65.78125 97.289062 65.675781 98.738281 C 65.570312 100.1875 65.503906 101.636719 65.480469 103.089844 C 65.457031 104.542969 65.46875 105.996094 65.527344 107.445312 C 65.582031 108.898438 65.675781 110.347656 65.8125 111.792969 C 65.949219 113.238281 66.125 114.679688 66.339844 116.117188 C 66.558594 117.554688 66.8125 118.984375 67.109375 120.40625 C 67.234375 120.996094 67.296875 121.589844 67.296875 122.195312 C 67.300781 122.796875 67.238281 123.394531 67.117188 123.984375 C 66.996094 124.574219 66.8125 125.144531 66.574219 125.695312 C 66.332031 126.25 66.039062 126.773438 65.6875 127.261719 C 65.339844 127.753906 64.945312 128.203125 64.5 128.613281 C 64.058594 129.023438 63.578125 129.382812 63.0625 129.691406 C 62.546875 130.003906 62.003906 130.257812 61.433594 130.453125 C 60.863281 130.648438 60.277344 130.785156 59.679688 130.863281 C 58.328125 131.042969 56.984375 131.285156 55.652344 131.59375 C 54.320312 131.898438 53.007812 132.269531 51.710938 132.699219 C 50.414062 133.128906 49.140625 133.621094 47.890625 134.171875 C 46.640625 134.722656 45.417969 135.328125 44.222656 135.996094 C 43.03125 136.660156 41.871094 137.378906 40.746094 138.15625 C 39.621094 138.929688 38.53125 139.753906 37.484375 140.632812 C 36.4375 141.507812 35.433594 142.433594 34.472656 143.40625 C 33.511719 144.375 32.597656 145.390625 31.734375 146.449219 C 30.867188 147.503906 30.054688 148.601562 29.292969 149.734375 C 28.53125 150.867188 27.824219 152.035156 27.171875 153.238281 C 26.519531 154.4375 25.921875 155.664062 25.386719 156.921875 C 24.851562 158.179688 24.375 159.457031 23.957031 160.757812 C 23.539062 162.058594 23.1875 163.378906 22.894531 164.714844 C 22.601562 166.046875 22.375 167.394531 22.207031 168.75 C 22.042969 170.105469 21.941406 171.46875 21.902344 172.832031 C 21.867188 174.199219 21.894531 175.5625 21.984375 176.925781 C 22.074219 178.289062 22.230469 179.644531 22.449219 180.996094 C 22.667969 182.34375 22.949219 183.679688 23.292969 185 C 23.636719 186.324219 24.042969 187.625 24.507812 188.910156 C 24.976562 190.195312 25.503906 191.453125 26.089844 192.6875 C 26.675781 193.921875 27.316406 195.125 28.015625 196.300781 C 28.714844 197.476562 29.464844 198.613281 30.273438 199.714844 C 31.078125 200.820312 31.933594 201.882812 32.839844 202.90625 C 33.746094 203.929688 34.699219 204.90625 35.699219 205.839844 C 36.695312 206.773438 37.734375 207.65625 38.816406 208.492188 C 39.898438 209.328125 41.015625 210.109375 42.171875 210.839844 C 43.328125 211.570312 44.511719 212.242188 45.730469 212.859375 C 46.949219 213.480469 48.195312 214.039062 49.464844 214.539062 C 50.738281 215.039062 52.03125 215.480469 53.34375 215.859375 C 54.65625 216.238281 55.980469 216.554688 57.324219 216.808594 C 58.667969 217.066406 60.019531 217.253906 61.378906 217.382812 C 62.738281 217.511719 64.101562 217.574219 65.46875 217.570312 L 309.53125 217.570312 C 310.957031 217.570312 312.382812 217.496094 313.800781 217.355469 C 315.21875 217.214844 316.628906 217.003906 318.027344 216.722656 C 319.425781 216.441406 320.808594 216.09375 322.175781 215.679688 C 323.539062 215.261719 324.878906 214.78125 326.199219 214.234375 C 327.515625 213.6875 328.804688 213.078125 330.0625 212.402344 C 331.320312 211.730469 332.539062 210.996094 333.726562 210.203125 C 334.914062 209.410156 336.054688 208.5625 337.160156 207.65625 C 338.261719 206.75 339.316406 205.792969 340.328125 204.785156 C 341.335938 203.777344 342.292969 202.71875 343.199219 201.617188 C 344.101562 200.515625 344.953125 199.371094 345.746094 198.183594 C 346.539062 197 347.273438 195.777344 347.945312 194.519531 C 348.617188 193.261719 349.230469 191.972656 349.777344 190.65625 C 350.324219 189.339844 350.804688 187.996094 351.21875 186.632812 C 351.636719 185.265625 351.984375 183.886719 352.265625 182.488281 C 352.542969 181.085938 352.753906 179.679688 352.898438 178.257812 C 353.039062 176.839844 353.113281 175.417969 353.113281 173.988281 C 353.109375 172.707031 353.046875 171.425781 352.925781 170.148438 C 352.808594 168.871094 352.636719 167.601562 352.40625 166.339844 C 352.175781 165.078125 351.890625 163.828125 351.550781 162.59375 C 351.210938 161.355469 350.816406 160.136719 350.367188 158.933594 C 349.921875 157.730469 349.421875 156.550781 348.871094 155.394531 C 348.320312 154.234375 347.71875 153.101562 347.066406 151.996094 C 346.417969 150.890625 345.71875 149.816406 344.972656 148.773438 C 344.226562 147.730469 343.4375 146.71875 342.605469 145.746094 C 341.769531 144.769531 340.894531 143.835938 339.976562 142.9375 C 339.0625 142.039062 338.109375 141.183594 337.117188 140.371094 C 336.125 139.558594 335.097656 138.789062 334.039062 138.066406 C 332.980469 137.339844 331.890625 136.667969 330.773438 136.039062 C 329.652344 135.410156 328.507812 134.832031 327.339844 134.308594 C 326.167969 133.78125 324.980469 133.304688 323.769531 132.882812 C 322.554688 132.460938 321.328125 132.09375 320.085938 131.78125 C 318.839844 131.464844 317.585938 131.207031 316.320312 131.003906 C 315.757812 130.917969 315.210938 130.777344 314.675781 130.585938 C 314.140625 130.390625 313.628906 130.148438 313.144531 129.855469 C 312.65625 129.5625 312.203125 129.226562 311.78125 128.84375 C 311.359375 128.460938 310.980469 128.042969 310.640625 127.585938 C 310.300781 127.128906 310.011719 126.644531 309.765625 126.132812 C 309.523438 125.617188 309.328125 125.085938 309.191406 124.535156 C 309.050781 123.984375 308.964844 123.425781 308.933594 122.859375 C 308.902344 122.289062 308.929688 121.726562 309.007812 121.164062 C 309.378906 118.445312 309.550781 115.714844 309.53125 112.972656 C 309.527344 110.976562 309.429688 108.984375 309.230469 106.996094 C 309.035156 105.007812 308.738281 103.035156 308.347656 101.074219 C 307.957031 99.117188 307.46875 97.179688 306.886719 95.269531 C 306.308594 93.359375 305.632812 91.480469 304.867188 89.632812 C 304.101562 87.789062 303.25 85.984375 302.304688 84.226562 C 301.363281 82.464844 300.335938 80.753906 299.226562 79.089844 C 298.117188 77.429688 296.929688 75.828125 295.660156 74.285156 C 294.394531 72.738281 293.050781 71.261719 291.640625 69.847656 C 290.226562 68.4375 288.75 67.097656 287.203125 65.828125 C 285.660156 64.5625 284.058594 63.371094 282.398438 62.261719 C 280.738281 61.152344 279.027344 60.125 277.265625 59.183594 C 275.503906 58.242188 273.699219 57.386719 271.855469 56.621094 C 270.007812 55.855469 268.132812 55.183594 266.21875 54.601562 C 264.308594 54.019531 262.375 53.535156 260.414062 53.140625 C 258.457031 52.75 256.480469 52.457031 254.492188 52.257812 C 252.507812 52.058594 250.511719 51.960938 248.515625 51.957031 C 243.226562 51.949219 238.023438 52.628906 232.914062 53.996094 C 227.804688 55.363281 222.957031 57.371094 218.378906 60.019531 C 217.917969 60.285156 217.4375 60.507812 216.9375 60.6875 C 216.4375 60.867188 215.925781 61 215.398438 61.085938 C 214.875 61.171875 214.347656 61.207031 213.816406 61.195312 C 213.28125 61.183594 212.757812 61.125 212.234375 61.015625 C 211.714844 60.910156 211.207031 60.753906 210.714844 60.554688 C 210.222656 60.355469 209.753906 60.113281 209.304688 59.824219 C 208.855469 59.539062 208.4375 59.214844 208.050781 58.851562 C 207.660156 58.488281 207.308594 58.09375 206.992188 57.664062 C 205.1875 55.195312 203.242188 52.839844 201.15625 50.601562 C 199.074219 48.359375 196.863281 46.25 194.53125 44.269531 C 192.195312 42.292969 189.753906 40.457031 187.203125 38.765625 C 184.65625 37.074219 182.015625 35.539062 179.28125 34.160156 C 176.550781 32.78125 173.75 31.566406 170.875 30.515625 C 168 29.46875 165.074219 28.59375 162.09375 27.890625 C 159.117188 27.1875 156.109375 26.660156 153.066406 26.3125 C 150.027344 25.964844 146.976562 25.796875 143.917969 25.808594 Z M 143.917969 25.808594 " fill-opacity="1" fill-rule="nonzero"/></g><path fill="#ffffff" d="M 118.566406 287.308594 C 118.21875 287.308594 117.871094 287.285156 117.523438 287.242188 C 117.179688 287.203125 116.835938 287.136719 116.496094 287.054688 C 116.160156 286.972656 115.824219 286.867188 115.5 286.746094 C 115.171875 286.621094 114.855469 286.480469 114.546875 286.316406 C 114.234375 286.15625 113.9375 285.976562 113.648438 285.777344 C 113.363281 285.582031 113.085938 285.367188 112.824219 285.136719 C 112.5625 284.90625 112.316406 284.664062 112.082031 284.402344 C 111.847656 284.140625 111.632812 283.871094 111.433594 283.582031 C 111.234375 283.296875 111.050781 283 110.886719 282.691406 C 110.722656 282.386719 110.578125 282.070312 110.449219 281.742188 C 110.324219 281.417969 110.21875 281.085938 110.128906 280.75 C 110.042969 280.410156 109.976562 280.070312 109.929688 279.722656 C 109.886719 279.375 109.859375 279.027344 109.855469 278.679688 C 109.851562 278.332031 109.871094 277.984375 109.90625 277.636719 C 109.945312 277.289062 110.003906 276.945312 110.082031 276.605469 C 110.160156 276.265625 110.261719 275.933594 110.378906 275.605469 L 116.726562 258.171875 C 116.921875 257.632812 117.167969 257.121094 117.464844 256.632812 C 117.761719 256.144531 118.105469 255.6875 118.492188 255.269531 C 118.878906 254.847656 119.300781 254.46875 119.765625 254.128906 C 120.226562 253.792969 120.714844 253.503906 121.234375 253.261719 C 121.753906 253.019531 122.289062 252.832031 122.84375 252.695312 C 123.402344 252.5625 123.964844 252.480469 124.535156 252.457031 C 125.105469 252.429688 125.675781 252.464844 126.242188 252.550781 C 126.804688 252.636719 127.355469 252.777344 127.894531 252.976562 C 128.429688 253.171875 128.945312 253.417969 129.433594 253.714844 C 129.921875 254.011719 130.378906 254.351562 130.796875 254.738281 C 131.21875 255.125 131.601562 255.546875 131.9375 256.007812 C 132.277344 256.46875 132.566406 256.960938 132.808594 257.480469 C 133.050781 257.996094 133.238281 258.535156 133.375 259.089844 C 133.511719 259.644531 133.59375 260.207031 133.617188 260.777344 C 133.640625 261.351562 133.613281 261.917969 133.523438 262.484375 C 133.4375 263.050781 133.296875 263.601562 133.101562 264.136719 L 126.757812 281.570312 C 126.449219 282.410156 126.027344 283.1875 125.480469 283.894531 C 124.9375 284.605469 124.300781 285.21875 123.566406 285.730469 C 122.835938 286.242188 122.042969 286.632812 121.1875 286.902344 C 120.335938 287.171875 119.460938 287.308594 118.566406 287.308594 Z M 118.566406 287.308594 " fill-opacity="1" fill-rule="nonzero"/><path fill="#ffffff" d="M 93.1875 357.039062 C 92.839844 357.039062 92.492188 357.019531 92.144531 356.976562 C 91.800781 356.933594 91.457031 356.871094 91.117188 356.785156 C 90.777344 356.703125 90.445312 356.601562 90.121094 356.476562 C 89.792969 356.351562 89.476562 356.210938 89.167969 356.050781 C 88.855469 355.886719 88.558594 355.707031 88.269531 355.511719 C 87.984375 355.3125 87.707031 355.101562 87.445312 354.871094 C 87.183594 354.640625 86.9375 354.394531 86.703125 354.132812 C 86.46875 353.875 86.253906 353.601562 86.054688 353.316406 C 85.855469 353.03125 85.671875 352.734375 85.507812 352.425781 C 85.34375 352.117188 85.199219 351.800781 85.070312 351.476562 C 84.945312 351.148438 84.835938 350.820312 84.75 350.480469 C 84.664062 350.140625 84.597656 349.800781 84.550781 349.453125 C 84.507812 349.109375 84.480469 348.761719 84.476562 348.414062 C 84.472656 348.0625 84.492188 347.714844 84.527344 347.367188 C 84.566406 347.023438 84.625 346.679688 84.703125 346.339844 C 84.78125 346 84.882812 345.664062 85 345.335938 L 97.691406 310.46875 C 97.886719 309.933594 98.132812 309.417969 98.429688 308.929688 C 98.726562 308.4375 99.070312 307.984375 99.457031 307.5625 C 99.84375 307.140625 100.265625 306.757812 100.726562 306.421875 C 101.191406 306.082031 101.679688 305.792969 102.199219 305.550781 C 102.71875 305.308594 103.253906 305.117188 103.8125 304.980469 C 104.367188 304.847656 104.933594 304.765625 105.503906 304.742188 C 106.074219 304.714844 106.644531 304.746094 107.210938 304.835938 C 107.777344 304.921875 108.328125 305.0625 108.867188 305.257812 C 109.402344 305.457031 109.917969 305.703125 110.40625 306 C 110.894531 306.296875 111.351562 306.636719 111.773438 307.023438 C 112.195312 307.414062 112.574219 307.835938 112.914062 308.296875 C 113.253906 308.761719 113.542969 309.25 113.785156 309.769531 C 114.027344 310.289062 114.214844 310.828125 114.351562 311.382812 C 114.484375 311.9375 114.566406 312.503906 114.589844 313.074219 C 114.613281 313.648438 114.582031 314.214844 114.496094 314.78125 C 114.40625 315.347656 114.265625 315.898438 114.070312 316.4375 L 101.378906 351.304688 C 101.070312 352.144531 100.648438 352.917969 100.101562 353.628906 C 99.558594 354.335938 98.921875 354.949219 98.1875 355.460938 C 97.453125 355.976562 96.664062 356.367188 95.808594 356.636719 C 94.957031 356.90625 94.082031 357.039062 93.1875 357.039062 Z M 93.1875 357.039062 " fill-opacity="1" fill-rule="nonzero"/><path fill="#ffffff" d="M 59.921875 304.742188 C 59.574219 304.742188 59.226562 304.71875 58.878906 304.675781 C 58.535156 304.632812 58.191406 304.570312 57.851562 304.488281 C 57.511719 304.40625 57.179688 304.300781 56.855469 304.175781 C 56.527344 304.054688 56.210938 303.910156 55.902344 303.75 C 55.589844 303.589844 55.292969 303.410156 55.003906 303.210938 C 54.71875 303.015625 54.441406 302.800781 54.179688 302.570312 C 53.917969 302.339844 53.671875 302.09375 53.4375 301.835938 C 53.203125 301.574219 52.988281 301.300781 52.789062 301.015625 C 52.589844 300.730469 52.40625 300.433594 52.242188 300.125 C 52.078125 299.816406 51.929688 299.5 51.804688 299.175781 C 51.679688 298.851562 51.570312 298.519531 51.484375 298.179688 C 51.398438 297.84375 51.332031 297.5 51.285156 297.15625 C 51.242188 296.808594 51.214844 296.460938 51.210938 296.113281 C 51.207031 295.765625 51.226562 295.417969 51.261719 295.070312 C 51.300781 294.722656 51.359375 294.378906 51.4375 294.039062 C 51.515625 293.699219 51.617188 293.363281 51.734375 293.035156 L 64.425781 258.171875 C 64.621094 257.632812 64.867188 257.121094 65.164062 256.632812 C 65.460938 256.144531 65.804688 255.6875 66.191406 255.265625 C 66.578125 254.84375 67.003906 254.464844 67.464844 254.125 C 67.925781 253.789062 68.414062 253.5 68.933594 253.257812 C 69.453125 253.015625 69.988281 252.828125 70.546875 252.691406 C 71.101562 252.554688 71.664062 252.476562 72.238281 252.453125 C 72.808594 252.425781 73.375 252.457031 73.941406 252.546875 C 74.507812 252.632812 75.058594 252.773438 75.597656 252.96875 C 76.132812 253.164062 76.648438 253.410156 77.136719 253.707031 C 77.625 254.003906 78.082031 254.347656 78.503906 254.734375 C 78.925781 255.121094 79.304688 255.542969 79.640625 256.007812 C 79.980469 256.46875 80.269531 256.957031 80.511719 257.476562 C 80.753906 257.996094 80.941406 258.53125 81.078125 259.085938 C 81.214844 259.644531 81.296875 260.207031 81.320312 260.777344 C 81.34375 261.351562 81.3125 261.917969 81.226562 262.484375 C 81.140625 263.050781 81 263.601562 80.804688 264.136719 L 68.113281 299.003906 C 67.804688 299.84375 67.378906 300.621094 66.835938 301.328125 C 66.292969 302.039062 65.652344 302.648438 64.921875 303.164062 C 64.1875 303.675781 63.394531 304.066406 62.542969 304.335938 C 61.691406 304.605469 60.816406 304.742188 59.921875 304.742188 Z M 59.921875 304.742188 " fill-opacity="1" fill-rule="nonzero"/><path fill="#ffffff" d="M 40.890625 357.039062 C 40.539062 357.039062 40.191406 357.019531 39.847656 356.976562 C 39.5 356.933594 39.15625 356.871094 38.820312 356.785156 C 38.480469 356.703125 38.148438 356.601562 37.820312 356.476562 C 37.496094 356.351562 37.175781 356.210938 36.867188 356.050781 C 36.558594 355.886719 36.257812 355.707031 35.972656 355.511719 C 35.683594 355.3125 35.410156 355.101562 35.148438 354.871094 C 34.882812 354.640625 34.636719 354.394531 34.402344 354.132812 C 34.171875 353.875 33.953125 353.601562 33.753906 353.316406 C 33.554688 353.03125 33.371094 352.734375 33.207031 352.425781 C 33.042969 352.117188 32.898438 351.800781 32.773438 351.476562 C 32.644531 351.148438 32.539062 350.820312 32.453125 350.480469 C 32.363281 350.140625 32.300781 349.800781 32.253906 349.453125 C 32.207031 349.109375 32.183594 348.761719 32.179688 348.414062 C 32.175781 348.0625 32.191406 347.714844 32.230469 347.367188 C 32.265625 347.023438 32.324219 346.679688 32.402344 346.339844 C 32.484375 346 32.582031 345.664062 32.699219 345.335938 L 39.046875 327.902344 C 39.242188 327.367188 39.488281 326.851562 39.789062 326.363281 C 40.085938 325.875 40.425781 325.421875 40.8125 325 C 41.199219 324.578125 41.625 324.199219 42.085938 323.863281 C 42.546875 323.527344 43.039062 323.234375 43.554688 322.996094 C 44.074219 322.753906 44.613281 322.566406 45.167969 322.429688 C 45.722656 322.292969 46.285156 322.214844 46.855469 322.191406 C 47.429688 322.164062 47.996094 322.195312 48.5625 322.285156 C 49.125 322.371094 49.675781 322.511719 50.214844 322.707031 C 50.753906 322.90625 51.265625 323.152344 51.753906 323.449219 C 52.242188 323.746094 52.699219 324.085938 53.121094 324.472656 C 53.539062 324.859375 53.921875 325.28125 54.257812 325.742188 C 54.597656 326.203125 54.886719 326.695312 55.128906 327.210938 C 55.371094 327.730469 55.558594 328.265625 55.695312 328.820312 C 55.832031 329.378906 55.914062 329.941406 55.9375 330.511719 C 55.964844 331.082031 55.933594 331.652344 55.847656 332.214844 C 55.761719 332.78125 55.617188 333.332031 55.425781 333.871094 L 49.078125 351.304688 C 48.773438 352.144531 48.347656 352.917969 47.804688 353.628906 C 47.257812 354.335938 46.621094 354.949219 45.886719 355.460938 C 45.15625 355.976562 44.363281 356.367188 43.511719 356.636719 C 42.65625 356.90625 41.785156 357.039062 40.890625 357.039062 Z M 40.890625 357.039062 " fill-opacity="1" fill-rule="nonzero"/><path fill="#ffffff" d="M 266.75 287.308594 C 266.398438 287.308594 266.050781 287.285156 265.707031 287.242188 C 265.359375 287.203125 265.015625 287.136719 264.679688 287.054688 C 264.339844 286.972656 264.007812 286.867188 263.679688 286.746094 C 263.355469 286.621094 263.035156 286.480469 262.726562 286.316406 C 262.417969 286.15625 262.117188 285.976562 261.832031 285.777344 C 261.542969 285.582031 261.269531 285.367188 261.003906 285.136719 C 260.742188 284.90625 260.496094 284.664062 260.261719 284.402344 C 260.03125 284.140625 259.8125 283.871094 259.613281 283.582031 C 259.414062 283.296875 259.230469 283 259.066406 282.691406 C 258.902344 282.386719 258.757812 282.070312 258.632812 281.742188 C 258.503906 281.417969 258.398438 281.085938 258.3125 280.75 C 258.222656 280.410156 258.15625 280.070312 258.113281 279.722656 C 258.066406 279.375 258.042969 279.027344 258.039062 278.679688 C 258.035156 278.332031 258.050781 277.984375 258.089844 277.636719 C 258.125 277.289062 258.183594 276.945312 258.261719 276.605469 C 258.34375 276.265625 258.441406 275.933594 258.558594 275.605469 L 264.90625 258.171875 C 265.101562 257.632812 265.347656 257.121094 265.644531 256.632812 C 265.945312 256.144531 266.285156 255.6875 266.671875 255.269531 C 267.058594 254.847656 267.484375 254.46875 267.945312 254.128906 C 268.40625 253.792969 268.894531 253.503906 269.414062 253.261719 C 269.933594 253.019531 270.46875 252.832031 271.027344 252.695312 C 271.582031 252.5625 272.144531 252.480469 272.714844 252.457031 C 273.289062 252.429688 273.855469 252.464844 274.421875 252.550781 C 274.984375 252.636719 275.539062 252.777344 276.074219 252.976562 C 276.613281 253.171875 277.125 253.417969 277.613281 253.714844 C 278.101562 254.011719 278.558594 254.351562 278.980469 254.738281 C 279.402344 255.125 279.78125 255.546875 280.121094 256.007812 C 280.457031 256.46875 280.746094 256.960938 280.988281 257.480469 C 281.230469 257.996094 281.421875 258.535156 281.554688 259.089844 C 281.691406 259.644531 281.773438 260.207031 281.796875 260.777344 C 281.824219 261.351562 281.792969 261.917969 281.707031 262.484375 C 281.621094 263.050781 281.476562 263.601562 281.28125 264.136719 L 274.9375 281.570312 C 274.632812 282.410156 274.207031 283.1875 273.664062 283.894531 C 273.117188 284.605469 272.480469 285.21875 271.746094 285.730469 C 271.015625 286.242188 270.222656 286.632812 269.371094 286.902344 C 268.515625 287.171875 267.644531 287.308594 266.75 287.308594 Z M 266.75 287.308594 " fill-opacity="1" fill-rule="nonzero"/><path fill="#ffffff" d="M 241.371094 357.039062 C 241.019531 357.039062 240.671875 357.019531 240.328125 356.976562 C 239.980469 356.933594 239.636719 356.871094 239.296875 356.785156 C 238.960938 356.703125 238.628906 356.601562 238.300781 356.476562 C 237.972656 356.351562 237.65625 356.210938 237.347656 356.050781 C 237.039062 355.886719 236.738281 355.707031 236.453125 355.511719 C 236.164062 355.3125 235.886719 355.101562 235.625 354.871094 C 235.363281 354.640625 235.117188 354.394531 234.882812 354.132812 C 234.652344 353.875 234.433594 353.601562 234.234375 353.316406 C 234.035156 353.03125 233.851562 352.734375 233.6875 352.425781 C 233.523438 352.117188 233.378906 351.800781 233.25 351.476562 C 233.125 351.148438 233.019531 350.820312 232.933594 350.480469 C 232.84375 350.140625 232.777344 349.800781 232.734375 349.453125 C 232.6875 349.109375 232.664062 348.761719 232.660156 348.414062 C 232.65625 348.0625 232.671875 347.714844 232.710938 347.367188 C 232.746094 347.023438 232.804688 346.679688 232.882812 346.339844 C 232.964844 346 233.0625 345.664062 233.179688 345.335938 L 245.871094 310.46875 C 246.066406 309.933594 246.3125 309.417969 246.609375 308.929688 C 246.90625 308.4375 247.25 307.980469 247.636719 307.558594 C 248.023438 307.136719 248.445312 306.757812 248.910156 306.417969 C 249.371094 306.078125 249.859375 305.789062 250.378906 305.546875 C 250.898438 305.304688 251.4375 305.117188 251.992188 304.980469 C 252.546875 304.84375 253.113281 304.761719 253.683594 304.738281 C 254.257812 304.714844 254.824219 304.746094 255.390625 304.832031 C 255.957031 304.917969 256.511719 305.058594 257.046875 305.257812 C 257.585938 305.453125 258.101562 305.699219 258.589844 305.996094 C 259.078125 306.292969 259.535156 306.636719 259.957031 307.023438 C 260.378906 307.410156 260.757812 307.835938 261.097656 308.296875 C 261.433594 308.757812 261.726562 309.25 261.964844 309.769531 C 262.207031 310.289062 262.394531 310.824219 262.53125 311.382812 C 262.667969 311.9375 262.746094 312.503906 262.773438 313.074219 C 262.796875 313.648438 262.765625 314.214844 262.675781 314.78125 C 262.589844 315.347656 262.445312 315.898438 262.25 316.4375 L 249.558594 351.304688 C 249.253906 352.144531 248.828125 352.917969 248.285156 353.628906 C 247.738281 354.335938 247.101562 354.949219 246.367188 355.460938 C 245.636719 355.976562 244.84375 356.367188 243.992188 356.636719 C 243.136719 356.90625 242.265625 357.039062 241.371094 357.039062 Z M 241.371094 357.039062 " fill-opacity="1" fill-rule="nonzero"/><path fill="#ffffff" d="M 312.703125 304.742188 C 312.351562 304.742188 312.003906 304.71875 311.660156 304.675781 C 311.3125 304.632812 310.96875 304.570312 310.632812 304.488281 C 310.292969 304.40625 309.960938 304.300781 309.632812 304.175781 C 309.308594 304.054688 308.988281 303.910156 308.679688 303.75 C 308.371094 303.589844 308.070312 303.410156 307.785156 303.210938 C 307.496094 303.015625 307.222656 302.800781 306.957031 302.570312 C 306.695312 302.339844 306.449219 302.09375 306.214844 301.835938 C 305.984375 301.574219 305.765625 301.300781 305.566406 301.015625 C 305.367188 300.730469 305.183594 300.433594 305.019531 300.125 C 304.855469 299.816406 304.710938 299.5 304.585938 299.175781 C 304.457031 298.851562 304.351562 298.519531 304.265625 298.179688 C 304.175781 297.84375 304.113281 297.5 304.066406 297.15625 C 304.019531 296.808594 303.996094 296.460938 303.992188 296.113281 C 303.988281 295.765625 304.003906 295.417969 304.042969 295.070312 C 304.078125 294.722656 304.136719 294.378906 304.214844 294.039062 C 304.296875 293.699219 304.394531 293.363281 304.511719 293.035156 L 317.203125 258.171875 C 317.402344 257.632812 317.648438 257.121094 317.945312 256.632812 C 318.242188 256.144531 318.585938 255.6875 318.972656 255.269531 C 319.359375 254.847656 319.78125 254.46875 320.242188 254.128906 C 320.707031 253.792969 321.195312 253.503906 321.714844 253.261719 C 322.230469 253.019531 322.769531 252.832031 323.324219 252.695312 C 323.878906 252.5625 324.445312 252.480469 325.015625 252.457031 C 325.585938 252.429688 326.15625 252.464844 326.71875 252.550781 C 327.285156 252.636719 327.835938 252.777344 328.375 252.976562 C 328.910156 253.171875 329.425781 253.417969 329.914062 253.714844 C 330.402344 254.011719 330.855469 254.351562 331.277344 254.738281 C 331.699219 255.125 332.078125 255.546875 332.417969 256.007812 C 332.757812 256.46875 333.046875 256.960938 333.289062 257.480469 C 333.53125 257.996094 333.71875 258.535156 333.855469 259.089844 C 333.992188 259.644531 334.070312 260.207031 334.097656 260.777344 C 334.121094 261.351562 334.089844 261.917969 334.003906 262.484375 C 333.917969 263.050781 333.777344 263.601562 333.582031 264.136719 L 320.890625 299.003906 C 320.585938 299.84375 320.160156 300.621094 319.613281 301.328125 C 319.070312 302.039062 318.433594 302.648438 317.699219 303.164062 C 316.96875 303.675781 316.175781 304.066406 315.324219 304.335938 C 314.46875 304.605469 313.597656 304.742188 312.703125 304.742188 Z M 312.703125 304.742188 " fill-opacity="1" fill-rule="nonzero"/><path fill="#ffffff" d="M 293.667969 357.039062 C 293.320312 357.039062 292.972656 357.019531 292.625 356.976562 C 292.28125 356.933594 291.9375 356.871094 291.597656 356.785156 C 291.257812 356.703125 290.925781 356.601562 290.601562 356.476562 C 290.273438 356.351562 289.957031 356.210938 289.644531 356.050781 C 289.335938 355.886719 289.039062 355.707031 288.75 355.511719 C 288.460938 355.3125 288.1875 355.101562 287.925781 354.871094 C 287.664062 354.640625 287.414062 354.394531 287.183594 354.132812 C 286.949219 353.875 286.734375 353.601562 286.535156 353.316406 C 286.332031 353.03125 286.152344 352.734375 285.988281 352.425781 C 285.824219 352.117188 285.675781 351.800781 285.550781 351.476562 C 285.425781 351.148438 285.316406 350.820312 285.230469 350.480469 C 285.144531 350.140625 285.078125 349.800781 285.03125 349.453125 C 284.988281 349.109375 284.960938 348.761719 284.957031 348.414062 C 284.953125 348.0625 284.96875 347.714844 285.007812 347.367188 C 285.046875 347.023438 285.105469 346.679688 285.183594 346.339844 C 285.261719 346 285.359375 345.664062 285.480469 345.335938 L 291.824219 327.902344 C 292.023438 327.367188 292.269531 326.851562 292.566406 326.363281 C 292.863281 325.875 293.207031 325.421875 293.59375 325 C 293.980469 324.578125 294.402344 324.199219 294.863281 323.863281 C 295.328125 323.527344 295.816406 323.234375 296.335938 322.996094 C 296.851562 322.753906 297.390625 322.566406 297.945312 322.429688 C 298.5 322.292969 299.066406 322.214844 299.636719 322.191406 C 300.207031 322.164062 300.773438 322.195312 301.339844 322.285156 C 301.90625 322.371094 302.457031 322.511719 302.992188 322.707031 C 303.53125 322.90625 304.042969 323.152344 304.53125 323.449219 C 305.023438 323.746094 305.476562 324.085938 305.898438 324.472656 C 306.320312 324.859375 306.699219 325.28125 307.039062 325.742188 C 307.375 326.203125 307.667969 326.695312 307.90625 327.210938 C 308.148438 327.730469 308.339844 328.265625 308.476562 328.820312 C 308.609375 329.378906 308.691406 329.941406 308.71875 330.511719 C 308.742188 331.082031 308.710938 331.652344 308.625 332.214844 C 308.539062 332.78125 308.398438 333.332031 308.203125 333.871094 L 301.859375 351.304688 C 301.550781 352.144531 301.125 352.917969 300.582031 353.628906 C 300.039062 354.335938 299.398438 354.949219 298.667969 355.460938 C 297.933594 355.976562 297.140625 356.367188 296.289062 356.636719 C 295.4375 356.90625 294.5625 357.039062 293.667969 357.039062 Z M 293.667969 357.039062 " fill-opacity="1" fill-rule="nonzero"/><path fill="#ffffff" d="M 176.378906 374.46875 C 175.535156 374.46875 174.707031 374.351562 173.898438 374.109375 C 173.421875 373.964844 172.964844 373.785156 172.519531 373.566406 C 172.074219 373.347656 171.652344 373.09375 171.253906 372.800781 C 170.851562 372.511719 170.480469 372.1875 170.132812 371.832031 C 169.789062 371.476562 169.476562 371.097656 169.195312 370.6875 C 168.914062 370.28125 168.671875 369.851562 168.464844 369.402344 C 168.253906 368.953125 168.085938 368.488281 167.960938 368.007812 C 167.832031 367.53125 167.746094 367.046875 167.699219 366.550781 C 167.652344 366.058594 167.648438 365.566406 167.6875 365.070312 L 171.726562 313.453125 L 146.289062 313.453125 C 145.9375 313.453125 145.589844 313.433594 145.246094 313.390625 C 144.898438 313.351562 144.554688 313.289062 144.214844 313.203125 C 143.878906 313.121094 143.542969 313.019531 143.21875 312.894531 C 142.890625 312.773438 142.574219 312.632812 142.261719 312.46875 C 141.953125 312.308594 141.65625 312.128906 141.367188 311.933594 C 141.078125 311.738281 140.800781 311.523438 140.539062 311.292969 C 140.277344 311.0625 140.03125 310.816406 139.796875 310.558594 C 139.5625 310.296875 139.347656 310.023438 139.148438 309.738281 C 138.945312 309.453125 138.765625 309.15625 138.601562 308.847656 C 138.4375 308.539062 138.289062 308.222656 138.164062 307.898438 C 138.039062 307.574219 137.929688 307.242188 137.84375 306.902344 C 137.757812 306.566406 137.691406 306.222656 137.644531 305.875 C 137.601562 305.53125 137.578125 305.183594 137.574219 304.832031 C 137.570312 304.484375 137.585938 304.136719 137.625 303.789062 C 137.664062 303.441406 137.722656 303.097656 137.800781 302.757812 C 137.878906 302.417969 137.980469 302.085938 138.097656 301.757812 L 166.652344 223.308594 C 166.957031 222.46875 167.382812 221.691406 167.925781 220.984375 C 168.472656 220.273438 169.109375 219.660156 169.84375 219.148438 C 170.574219 218.636719 171.367188 218.242188 172.222656 217.976562 C 173.074219 217.707031 173.949219 217.570312 174.84375 217.570312 L 209.707031 217.570312 C 210.058594 217.570312 210.40625 217.59375 210.75 217.632812 C 211.097656 217.675781 211.441406 217.738281 211.78125 217.820312 C 212.121094 217.902344 212.453125 218.007812 212.777344 218.128906 C 213.105469 218.253906 213.425781 218.394531 213.734375 218.554688 C 214.042969 218.714844 214.34375 218.894531 214.628906 219.09375 C 214.917969 219.289062 215.195312 219.503906 215.457031 219.734375 C 215.71875 219.964844 215.964844 220.207031 216.199219 220.46875 C 216.433594 220.726562 216.648438 221 216.851562 221.285156 C 217.050781 221.574219 217.234375 221.871094 217.398438 222.175781 C 217.5625 222.484375 217.707031 222.800781 217.832031 223.128906 C 217.960938 223.453125 218.066406 223.785156 218.152344 224.121094 C 218.242188 224.460938 218.304688 224.800781 218.351562 225.148438 C 218.398438 225.496094 218.421875 225.84375 218.425781 226.191406 C 218.429688 226.539062 218.414062 226.886719 218.375 227.234375 C 218.335938 227.582031 218.277344 227.925781 218.199219 228.265625 C 218.121094 228.605469 218.019531 228.941406 217.902344 229.269531 L 206.296875 261.15625 L 228.710938 261.15625 C 229.089844 261.15625 229.464844 261.179688 229.835938 261.226562 C 230.210938 261.277344 230.578125 261.347656 230.941406 261.445312 C 231.304688 261.542969 231.660156 261.660156 232.011719 261.804688 C 232.359375 261.945312 232.695312 262.109375 233.023438 262.296875 C 233.351562 262.484375 233.664062 262.691406 233.964844 262.917969 C 234.265625 263.144531 234.550781 263.390625 234.816406 263.652344 C 235.085938 263.917969 235.335938 264.195312 235.570312 264.492188 C 235.800781 264.789062 236.015625 265.097656 236.207031 265.421875 C 236.398438 265.746094 236.570312 266.082031 236.71875 266.425781 C 236.867188 266.773438 236.992188 267.125 237.09375 267.488281 C 237.199219 267.851562 237.277344 268.21875 237.332031 268.589844 C 237.386719 268.964844 237.417969 269.335938 237.425781 269.714844 C 237.433594 270.089844 237.414062 270.464844 237.375 270.839844 C 237.332031 271.214844 237.265625 271.582031 237.175781 271.949219 C 237.085938 272.316406 236.972656 272.671875 236.839844 273.023438 C 236.703125 273.375 236.542969 273.714844 236.363281 274.046875 L 184.03125 369.929688 C 183.65625 370.613281 183.195312 371.242188 182.652344 371.804688 C 182.109375 372.367188 181.5 372.847656 180.828125 373.25 C 180.15625 373.648438 179.441406 373.953125 178.6875 374.160156 C 177.929688 374.367188 177.160156 374.46875 176.378906 374.46875 Z M 158.738281 296.019531 L 181.15625 296.019531 C 181.753906 296.019531 182.351562 296.082031 182.9375 296.203125 C 183.527344 296.328125 184.097656 296.507812 184.648438 296.75 C 185.199219 296.988281 185.71875 297.285156 186.210938 297.632812 C 186.699219 297.980469 187.148438 298.375 187.554688 298.816406 C 187.964844 299.257812 188.324219 299.738281 188.632812 300.253906 C 188.941406 300.769531 189.195312 301.308594 189.390625 301.878906 C 189.589844 302.445312 189.726562 303.027344 189.800781 303.625 C 189.878906 304.222656 189.894531 304.820312 189.84375 305.417969 L 188.25 325.8125 L 214.023438 278.585938 L 193.84375 278.585938 C 193.496094 278.585938 193.148438 278.566406 192.800781 278.523438 C 192.457031 278.484375 192.113281 278.421875 191.773438 278.339844 C 191.433594 278.253906 191.101562 278.152344 190.773438 278.03125 C 190.449219 277.90625 190.128906 277.765625 189.820312 277.605469 C 189.511719 277.441406 189.210938 277.265625 188.921875 277.066406 C 188.636719 276.871094 188.359375 276.65625 188.097656 276.425781 C 187.835938 276.195312 187.585938 275.949219 187.355469 275.691406 C 187.121094 275.429688 186.90625 275.160156 186.703125 274.871094 C 186.503906 274.585938 186.320312 274.289062 186.15625 273.980469 C 185.992188 273.675781 185.847656 273.359375 185.71875 273.03125 C 185.59375 272.707031 185.488281 272.375 185.398438 272.039062 C 185.3125 271.699219 185.246094 271.355469 185.203125 271.011719 C 185.15625 270.664062 185.132812 270.316406 185.128906 269.96875 C 185.125 269.621094 185.140625 269.269531 185.179688 268.925781 C 185.21875 268.578125 185.277344 268.234375 185.355469 267.894531 C 185.433594 267.554688 185.535156 267.21875 185.652344 266.890625 L 197.257812 235.003906 L 180.945312 235.003906 Z M 158.738281 296.019531 " fill-opacity="1" fill-rule="nonzero"/></svg>