<svg xmlns="http://www.w3.org/2000/svg" xmlns:xlink="http://www.w3.org/1999/xlink" width="500" zoomAndPan="magnify" viewBox="0 0 375 374.999991" height="500" preserveAspectRatio="xMidYMid meet" version="1.0"><path fill="#ffffff" d="M 187.886719 287.191406 C 132.914062 287.191406 88.195312 242.46875 88.195312 187.5 C 88.195312 132.527344 132.917969 87.808594 187.886719 87.808594 C 242.859375 87.808594 287.578125 132.53125 287.578125 187.5 C 287.578125 242.472656 242.855469 287.191406 187.886719 287.191406 Z M 187.886719 115.414062 C 148.136719 115.414062 115.800781 147.753906 115.800781 187.5 C 115.800781 227.246094 148.136719 259.585938 187.886719 259.585938 C 227.632812 259.585938 259.972656 227.246094 259.972656 187.5 C 259.972656 147.753906 227.632812 115.414062 187.886719 115.414062 Z M 187.886719 115.414062 " fill-opacity="1" fill-rule="nonzero"/><path fill="#ffffff" d="M 187.5 375 C 179.878906 375 173.695312 368.820312 173.695312 361.195312 L 173.695312 321.316406 C 173.695312 313.691406 179.875 307.511719 187.5 307.511719 C 195.125 307.511719 201.304688 313.691406 201.304688 321.316406 L 201.304688 361.195312 C 201.304688 368.820312 195.125 375 187.5 375 Z M 187.5 375 " fill-opacity="1" fill-rule="nonzero"/><path fill="#ffffff" d="M 187.5 67.484375 C 179.878906 67.484375 173.695312 61.304688 173.695312 53.679688 L 173.695312 13.804688 C 173.695312 6.179688 179.878906 0 187.5 0 C 195.125 0 201.304688 6.179688 201.304688 13.804688 L 201.304688 53.683594 C 201.304688 61.304688 195.125 67.484375 187.5 67.484375 Z M 187.5 67.484375 " fill-opacity="1" fill-rule="nonzero"/><path fill="#ffffff" d="M 64.675781 324.125 C 61.144531 324.125 57.609375 322.777344 54.917969 320.078125 C 49.523438 314.6875 49.523438 305.949219 54.917969 300.558594 L 83.113281 272.359375 C 88.507812 266.96875 97.246094 266.96875 102.636719 272.359375 C 108.027344 277.75 108.027344 286.488281 102.636719 291.878906 L 74.4375 320.078125 C 71.742188 322.777344 68.210938 324.125 64.675781 324.125 Z M 64.675781 324.125 " fill-opacity="1" fill-rule="nonzero"/><path fill="#ffffff" d="M 282.125 106.679688 C 278.589844 106.679688 275.058594 105.332031 272.363281 102.636719 C 266.972656 97.246094 266.972656 88.507812 272.363281 83.113281 L 300.5625 54.917969 C 305.953125 49.523438 314.691406 49.523438 320.082031 54.917969 C 325.476562 60.308594 325.476562 69.046875 320.082031 74.4375 L 291.886719 102.636719 C 289.191406 105.332031 285.65625 106.679688 282.125 106.679688 Z M 282.125 106.679688 " fill-opacity="1" fill-rule="nonzero"/><path fill="#ffffff" d="M 53.683594 201.304688 L 13.804688 201.304688 C 6.179688 201.304688 0 195.121094 0 187.5 C 0 179.878906 6.179688 173.695312 13.804688 173.695312 L 53.683594 173.695312 C 61.304688 173.695312 67.488281 179.875 67.488281 187.5 C 67.488281 195.125 61.304688 201.304688 53.683594 201.304688 Z M 53.683594 201.304688 " fill-opacity="1" fill-rule="nonzero"/><path fill="#ffffff" d="M 361.195312 201.304688 L 321.316406 201.304688 C 313.691406 201.304688 307.511719 195.125 307.511719 187.5 C 307.511719 179.875 313.691406 173.695312 321.316406 173.695312 L 361.195312 173.695312 C 368.820312 173.695312 375 179.875 375 187.5 C 375 195.125 368.820312 201.304688 361.195312 201.304688 Z M 361.195312 201.304688 " fill-opacity="1" fill-rule="nonzero"/><path fill="#ffffff" d="M 92.875 106.679688 C 89.34375 106.679688 85.808594 105.332031 83.113281 102.636719 L 54.917969 74.4375 C 49.523438 69.046875 49.523438 60.308594 54.917969 54.917969 C 60.308594 49.523438 69.046875 49.523438 74.4375 54.917969 L 102.636719 83.113281 C 108.027344 88.507812 108.027344 97.246094 102.636719 102.636719 C 99.941406 105.332031 96.410156 106.679688 92.875 106.679688 Z M 92.875 106.679688 " fill-opacity="1" fill-rule="nonzero"/><path fill="#ffffff" d="M 310.324219 324.125 C 306.789062 324.125 303.257812 322.777344 300.5625 320.078125 L 272.363281 291.878906 C 266.972656 286.488281 266.972656 277.75 272.363281 272.359375 C 277.753906 266.96875 286.492188 266.96875 291.886719 272.359375 L 320.082031 300.558594 C 325.476562 305.949219 325.476562 314.6875 320.082031 320.078125 C 317.386719 322.777344 313.855469 324.125 310.324219 324.125 Z M 310.324219 324.125 " fill-opacity="1" fill-rule="nonzero"/></svg>