<svg xmlns="http://www.w3.org/2000/svg" xmlns:xlink="http://www.w3.org/1999/xlink" width="500" zoomAndPan="magnify" viewBox="0 0 375 374.999991" height="500" preserveAspectRatio="xMidYMid meet" version="1.0"><defs><clipPath id="737982f76e"><path d="M 253 42.652344 L 269 42.652344 L 269 75 L 253 75 Z M 253 42.652344 " clip-rule="nonzero"/></clipPath><clipPath id="8873cda361"><path d="M 333 140 L 366 140 L 366 156 L 333 156 Z M 333 140 " clip-rule="nonzero"/></clipPath><clipPath id="ff1b6cf2e2"><path d="M 0 85 L 366 85 L 366 332.152344 L 0 332.152344 Z M 0 85 " clip-rule="nonzero"/></clipPath></defs><g clip-path="url(#737982f76e)"><path fill="#ffffff" d="M 268.253906 67.339844 L 268.253906 50.316406 C 268.253906 46.105469 264.84375 42.691406 260.632812 42.691406 C 256.421875 42.691406 253.007812 46.105469 253.007812 50.316406 L 253.007812 67.339844 C 253.007812 71.550781 256.421875 74.964844 260.632812 74.964844 C 264.84375 74.964844 268.253906 71.550781 268.253906 67.339844 Z M 268.253906 67.339844 " fill-opacity="1" fill-rule="nonzero"/></g><g clip-path="url(#8873cda361)"><path fill="#ffffff" d="M 358.394531 140.460938 L 341.375 140.460938 C 337.164062 140.460938 333.75 143.871094 333.75 148.082031 C 333.75 152.292969 337.164062 155.707031 341.375 155.707031 L 358.394531 155.707031 C 362.605469 155.707031 366.019531 152.292969 366.019531 148.082031 C 366.019531 143.871094 362.605469 140.460938 358.394531 140.460938 Z M 358.394531 140.460938 " fill-opacity="1" fill-rule="nonzero"/></g><path fill="#ffffff" d="M 220.265625 85.78125 C 221.558594 85.78125 222.867188 85.453125 224.070312 84.761719 C 227.714844 82.65625 228.964844 77.996094 226.863281 74.347656 L 218.355469 59.601562 C 216.242188 55.957031 211.585938 54.695312 207.9375 56.8125 C 204.292969 58.917969 203.042969 63.578125 205.148438 67.226562 L 213.65625 81.96875 C 215.070312 84.414062 217.632812 85.78125 220.265625 85.78125 Z M 220.265625 85.78125 " fill-opacity="1" fill-rule="nonzero"/><path fill="#ffffff" d="M 330.5625 115.332031 C 331.855469 115.332031 333.164062 115.007812 334.367188 114.3125 L 349.113281 105.804688 C 352.757812 103.699219 354.007812 99.039062 351.902344 95.390625 C 349.796875 91.746094 345.144531 90.484375 341.488281 92.597656 L 326.746094 101.105469 C 323.101562 103.214844 321.851562 107.875 323.953125 111.523438 C 325.367188 113.96875 327.929688 115.332031 330.5625 115.332031 Z M 330.5625 115.332031 " fill-opacity="1" fill-rule="nonzero"/><path fill="#ffffff" d="M 300.992188 85.78125 C 303.628906 85.78125 306.191406 84.414062 307.605469 81.96875 L 316.117188 67.226562 C 318.21875 63.582031 316.972656 58.917969 313.324219 56.8125 C 309.664062 54.695312 305.011719 55.957031 302.910156 59.601562 L 294.398438 74.347656 C 292.292969 77.992188 293.542969 82.65625 297.1875 84.761719 C 298.390625 85.453125 299.703125 85.78125 300.992188 85.78125 Z M 300.992188 85.78125 " fill-opacity="1" fill-rule="nonzero"/><path fill="#ffffff" d="M 326.746094 195.058594 L 341.488281 203.566406 C 342.691406 204.261719 344 204.589844 345.292969 204.589844 C 347.929688 204.589844 350.492188 203.222656 351.902344 200.777344 C 354.007812 197.128906 352.757812 192.46875 349.113281 190.359375 L 334.367188 181.851562 C 330.703125 179.742188 326.054688 180.996094 323.953125 184.644531 C 321.851562 188.292969 323.101562 192.953125 326.746094 195.058594 Z M 326.746094 195.058594 " fill-opacity="1" fill-rule="nonzero"/><path fill="#ffffff" d="M 186.894531 114.3125 C 188.097656 115.007812 189.410156 115.332031 190.699219 115.332031 C 193.335938 115.332031 195.902344 113.96875 197.3125 111.523438 C 199.414062 107.875 198.164062 103.214844 194.519531 101.105469 L 179.777344 92.597656 C 176.121094 90.484375 171.460938 91.746094 169.359375 95.390625 C 167.257812 99.039062 168.507812 103.699219 172.152344 105.804688 Z M 186.894531 114.3125 " fill-opacity="1" fill-rule="nonzero"/><g clip-path="url(#ff1b6cf2e2)"><path fill="#ffffff" d="M 300.90625 203.371094 C 300.125 201.328125 299.238281 199.335938 298.28125 197.382812 C 313.523438 185.707031 322.765625 167.4375 322.765625 148.082031 C 322.765625 113.820312 294.894531 85.945312 260.632812 85.945312 C 228.292969 85.945312 201.675781 110.78125 198.785156 142.378906 C 183.785156 127.792969 163.152344 119.152344 141.082031 119.152344 C 96.527344 119.152344 60.28125 153.59375 60.28125 195.925781 C 60.28125 198.488281 60.425781 201.078125 60.710938 203.683594 C 26.691406 207.109375 0.0976562 234.558594 0.0976562 267.8125 C 0.0976562 303.371094 30.515625 332.300781 67.902344 332.300781 L 298.214844 332.300781 C 335.605469 332.300781 366.019531 303.371094 366.019531 267.8125 C 366.019531 233.109375 337.050781 204.722656 300.90625 203.371094 Z M 260.632812 101.191406 C 286.484375 101.191406 307.519531 122.226562 307.519531 148.082031 C 307.519531 162.179688 301.027344 175.542969 290.214844 184.382812 C 289.742188 183.769531 289.1875 183.238281 288.699219 182.640625 C 287.648438 181.367188 286.578125 180.113281 285.449219 178.90625 C 284.515625 177.902344 283.5625 176.933594 282.582031 175.984375 C 281.683594 175.121094 280.753906 174.296875 279.816406 173.476562 C 275.753906 169.898438 271.339844 166.746094 266.621094 164.039062 C 265.695312 163.503906 264.769531 162.976562 263.820312 162.476562 C 262.425781 161.746094 261.019531 161.054688 259.582031 160.402344 C 258.457031 159.890625 257.308594 159.433594 256.160156 158.972656 C 254.808594 158.429688 253.480469 157.859375 252.101562 157.390625 C 249.757812 156.585938 247.363281 155.894531 244.933594 155.300781 C 243.777344 155.015625 242.597656 154.8125 241.425781 154.582031 C 239.785156 154.25 238.144531 153.957031 236.476562 153.726562 C 235.285156 153.5625 234.09375 153.417969 232.890625 153.304688 C 231.066406 153.132812 229.226562 153.039062 227.378906 152.988281 C 226.59375 152.96875 225.824219 152.855469 225.039062 152.855469 C 224.835938 152.855469 224.613281 152.898438 224.410156 152.902344 C 221.035156 152.925781 217.628906 153.207031 214.210938 153.652344 C 214.171875 153.660156 214.136719 153.65625 214.09375 153.664062 C 213.859375 151.785156 213.742188 149.921875 213.742188 148.082031 C 213.742188 122.226562 234.777344 101.191406 260.632812 101.191406 Z M 298.214844 317.054688 L 67.902344 317.054688 C 38.921875 317.054688 15.34375 294.960938 15.34375 267.8125 C 15.34375 240.675781 38.886719 218.597656 68.398438 218.597656 C 68.535156 218.597656 69.375 218.648438 69.476562 218.652344 C 71.832031 218.734375 74.113281 217.691406 75.613281 215.851562 C 77.113281 214.015625 77.675781 211.585938 77.128906 209.277344 C 76.066406 204.78125 75.527344 200.289062 75.527344 195.925781 C 75.527344 162 104.933594 134.398438 141.082031 134.398438 C 165.25 134.398438 187.390625 146.832031 198.855469 166.84375 C 200.570312 169.832031 204.066406 171.304688 207.402344 170.429688 C 208.125 170.238281 208.847656 170.136719 209.570312 169.96875 C 209.648438 169.953125 209.722656 169.980469 209.804688 169.960938 C 212.300781 169.394531 214.664062 169 216.972656 168.695312 C 217.546875 168.625 218.121094 168.554688 218.691406 168.5 C 220.101562 168.351562 221.464844 168.292969 222.828125 168.242188 C 224.015625 168.203125 225.203125 168.164062 226.382812 168.1875 C 228.128906 168.21875 229.859375 168.347656 231.582031 168.515625 C 232.949219 168.644531 234.308594 168.808594 235.65625 169.019531 C 237.40625 169.292969 239.144531 169.605469 240.855469 170.011719 C 241.976562 170.277344 243.074219 170.597656 244.171875 170.917969 C 245.484375 171.296875 246.78125 171.714844 248.0625 172.171875 C 249.171875 172.570312 250.285156 172.960938 251.367188 173.414062 C 252.773438 173.996094 254.136719 174.660156 255.492188 175.335938 C 257.03125 176.097656 258.53125 176.921875 260 177.796875 C 261.230469 178.53125 262.453125 179.269531 263.628906 180.078125 C 264.585938 180.734375 265.503906 181.433594 266.421875 182.140625 C 267.523438 182.984375 268.59375 183.867188 269.636719 184.78125 C 270.414062 185.460938 271.203125 186.128906 271.945312 186.847656 C 273.625 188.464844 275.234375 190.152344 276.722656 191.949219 C 277.042969 192.335938 277.320312 192.753906 277.632812 193.148438 C 278.914062 194.777344 280.128906 196.464844 281.246094 198.226562 C 284.195312 202.855469 286.578125 207.859375 288.160156 213.226562 C 289.152344 216.582031 292.324219 218.851562 295.78125 218.691406 L 296.984375 218.625 C 297.394531 218.597656 297.800781 218.570312 298.214844 218.570312 C 327.195312 218.570312 350.773438 240.65625 350.773438 267.8125 C 350.773438 294.960938 327.195312 317.054688 298.214844 317.054688 Z M 298.214844 317.054688 " fill-opacity="1" fill-rule="nonzero"/></g></svg>